<?xml version="1.0" encoding="UTF-8"?>
<svg id="Capa_2" data-name="Capa 2" xmlns="http://www.w3.org/2000/svg" viewBox="0 0 51.26 33.02">
  <defs>
    <style>
      .cls-1 {
        fill: #1d1d1b;
      }
    </style>
  </defs>
  <g id="Capa_1-2" data-name="Capa 1">
    <g>
      <path class="cls-1" d="M11.44,6.21s0,.04-.02,.05c0,.06,0,.13-.02,.21-.01,.08-.03,.19-.05,.3-.11,.67-.34,1.29-.66,1.87-.33,.58-.73,1.08-1.22,1.5-.48,.42-1.03,.76-1.65,1s-1.26,.37-1.94,.37c-.76,0-1.48-.15-2.15-.46-.67-.3-1.26-.72-1.77-1.23-.5-.52-.9-1.13-1.2-1.83-.3-.7-.44-1.45-.44-2.24s.15-1.53,.44-2.24c.3-.7,.7-1.32,1.2-1.83,.5-.52,1.09-.93,1.77-1.23,.67-.3,1.39-.46,2.15-.46,.56,0,1.1,.08,1.6,.25,.51,.17,.98,.39,1.42,.68l.19,.13c.25,.17,.41,.4,.47,.7,.06,.3,.01,.58-.15,.84-.16,.26-.39,.43-.67,.5s-.56,.02-.81-.14l-.41-.29c-.24-.13-.5-.24-.78-.31-.28-.08-.56-.12-.86-.12-.47,0-.91,.09-1.32,.28-.41,.19-.77,.44-1.08,.75-.31,.32-.56,.69-.73,1.12-.18,.43-.27,.89-.27,1.38s.09,.95,.27,1.38c.18,.43,.42,.8,.73,1.12,.31,.32,.67,.57,1.08,.75,.41,.19,.85,.28,1.32,.28,.37,0,.72-.06,1.05-.17,.33-.11,.64-.27,.91-.47,.28-.2,.52-.44,.73-.73,.21-.28,.37-.59,.5-.92h-1.48c-.3,0-.55-.11-.76-.33-.21-.22-.31-.49-.31-.8s.1-.57,.31-.79,.46-.32,.76-.32h2.68c.33,.02,.61,.16,.84,.42,.22,.26,.34,.56,.34,.9v.13Z"/>
      <path class="cls-1" d="M18.05,0c.77,0,1.49,.15,2.17,.46,.67,.3,1.26,.72,1.76,1.23s.9,1.13,1.19,1.83c.29,.7,.44,1.45,.44,2.24v4.65c0,.31-.1,.57-.31,.79-.21,.21-.46,.32-.76,.32s-.56-.11-.77-.32-.32-.48-.32-.79v-2.15h-3.4v-.02s-.1,.02-.19,.02c-.38,0-.74,.06-1.09,.18s-.66,.29-.94,.5c-.28,.21-.53,.47-.73,.77s-.36,.63-.47,.98c-.01,.01-.02,.02-.02,.04s0,.02-.02,.04c-.07,.23-.2,.41-.38,.55-.18,.14-.4,.21-.64,.21-.3,0-.55-.11-.76-.32s-.31-.48-.31-.79V5.76c0-.7,.11-1.37,.35-1.99,.28-.76,.69-1.44,1.24-2.04,.52-.54,1.11-.96,1.79-1.27,.67-.31,1.4-.47,2.17-.47Zm3.4,6.03v-.27c0-.62-.14-1.19-.43-1.72,0-.01,0-.02,0-.03,0,0,0-.01,0-.03-.05-.07-.09-.14-.14-.21-.05-.07-.09-.14-.14-.2-.31-.42-.7-.75-1.16-.98-.46-.24-.97-.36-1.52-.36s-1.06,.13-1.53,.39c-.47,.26-.85,.59-1.17,1.01-.22,.3-.39,.63-.51,.98-.12,.36-.18,.74-.18,1.15v1.32c.45-.33,.94-.59,1.48-.78,.54-.18,1.11-.28,1.71-.28h3.59Z"/>
      <path class="cls-1" d="M36.04,11.53c-.3,0-.55-.11-.75-.32-.2-.21-.3-.48-.3-.79V3.79l-1.38,1.43c-.28,.29-.59,.51-.94,.66s-.72,.23-1.11,.23-.76-.08-1.12-.23-.67-.38-.93-.66l-1.39-1.45v6.64c0,.31-.1,.57-.31,.79-.21,.21-.46,.32-.77,.32s-.56-.11-.77-.32-.31-.48-.31-.79V1.13c0-.31,.1-.57,.31-.79s.46-.32,.76-.32c.22,0,.42,.07,.6,.2v-.02l.14,.13,3.07,3.2c.21,.19,.44,.29,.71,.29s.48-.1,.69-.29L35.41,.21h.02c.18-.13,.39-.2,.6-.2,.3,0,.55,.11,.76,.32,.21,.21,.31,.48,.31,.79V10.42c0,.31-.1,.57-.31,.79-.21,.21-.46,.32-.76,.32Z"/>
      <path class="cls-1" d="M49.81,5.78c-.01,.31-.12,.57-.34,.79-.21,.21-.47,.33-.77,.34h-7.68c.05,.14,.11,.29,.19,.45,.06,.12,.11,.23,.17,.34l.17,.32c-.06-.1-.11-.19-.16-.28-.05-.09-.09-.18-.14-.28,.18,.35,.42,.66,.71,.93s.61,.49,.97,.64c.38,.17,.8,.26,1.26,.29h.07c.3,0,.55,.1,.75,.31,.2,.21,.3,.47,.3,.78s-.1,.57-.3,.79c-.2,.21-.45,.32-.75,.32h-.2c-.06,0-.12,0-.18-.02-.48-.04-.96-.14-1.42-.3-.46-.17-.89-.38-1.29-.65s-.76-.59-1.08-.96c-.32-.37-.59-.78-.81-1.23-.43-.9-.62-1.84-.58-2.84,.04-1,.31-1.92,.82-2.77,.05-.07,.1-.15,.15-.22,.05-.08,.11-.15,.16-.22,.43-.6,.94-1.08,1.55-1.46,.61-.38,1.26-.63,1.95-.76,.89-.14,1.76-.07,2.62,.21,.86,.29,1.6,.76,2.23,1.43,.51,.54,.9,1.15,1.18,1.83,.28,.68,.42,1.4,.42,2.15v.07Zm-7.37-3.01c-.33,.23-.62,.5-.86,.83s-.43,.68-.55,1.06h6.49c-.06-.18-.14-.37-.24-.57-.22-.43-.52-.8-.89-1.1-.37-.3-.79-.52-1.25-.65-.45-.13-.91-.16-1.38-.08-.47,.08-.91,.25-1.31,.51Z"/>
      <path class="cls-1" d="M9.11,29.58c0,.46-.09,.9-.26,1.32-.17,.42-.4,.78-.69,1.09-.29,.31-.64,.56-1.04,.74-.4,.18-.83,.28-1.27,.28H1.09c-.3,0-.56-.11-.77-.33-.21-.22-.32-.48-.32-.79s.11-.57,.32-.79c.21-.22,.47-.33,.77-.33H5.82c.31,0,.58-.12,.8-.35,.22-.23,.34-.51,.34-.84s-.11-.62-.34-.86c-.22-.23-.49-.35-.8-.35H3.57c-.46,0-.89-.09-1.29-.27-.4-.18-.75-.42-1.05-.73-.3-.31-.54-.67-.71-1.09-.17-.42-.26-.87-.26-1.34s.09-.92,.26-1.34c.17-.42,.41-.78,.71-1.09,.3-.31,.65-.56,1.04-.74,.4-.18,.83-.28,1.29-.28h2.19c.3,0,.56,.11,.77,.33,.21,.22,.32,.48,.32,.79s-.11,.57-.32,.79c-.21,.22-.47,.33-.77,.33H3.54c-.31,.01-.58,.13-.8,.36-.22,.23-.33,.51-.33,.85s.11,.61,.33,.85,.49,.35,.81,.35h2.24c.46,0,.89,.09,1.29,.28s.75,.43,1.05,.74c.3,.31,.54,.67,.71,1.09,.17,.42,.26,.86,.26,1.34Z"/>
      <path class="cls-1" d="M19.76,21.81c.21,.22,.31,.49,.31,.8s-.1,.57-.31,.79c-.21,.21-.46,.32-.76,.32h-2.76v8.18c0,.31-.11,.57-.32,.79s-.47,.32-.77,.32-.55-.11-.76-.32-.31-.48-.31-.79v-8.18h-2.76c-.3,0-.55-.11-.76-.32-.21-.21-.31-.48-.31-.79s.1-.58,.31-.8c.21-.22,.46-.33,.76-.33h7.68c.3,0,.55,.11,.76,.33Z"/>
      <path class="cls-1" d="M25.23,21.59c.89-.15,1.76-.09,2.61,.2,.86,.29,1.6,.76,2.24,1.43,.52,.54,.92,1.16,1.2,1.87,.28,.71,.42,1.45,.41,2.21,0,.61-.1,1.2-.29,1.78-.19,.58-.46,1.11-.8,1.6-.56,.79-1.28,1.39-2.14,1.8-.86,.41-1.76,.59-2.69,.53-.48-.04-.96-.14-1.42-.3-.46-.17-.89-.39-1.29-.66-.4-.27-.76-.6-1.08-.97-.32-.37-.59-.78-.81-1.23-.21-.44-.36-.9-.46-1.38-.1-.48-.14-.96-.11-1.44s.1-.96,.23-1.43c.13-.47,.33-.92,.58-1.33,.08-.15,.18-.31,.29-.47h.02c.43-.6,.94-1.08,1.55-1.45,.61-.37,1.26-.62,1.95-.75Zm3.73,7.68c.24-.37,.41-.77,.51-1.2,.1-.43,.12-.86,.06-1.31-.07-.44-.2-.83-.38-1.16-.23-.43-.53-.8-.9-1.11-.37-.31-.78-.52-1.24-.64-.45-.13-.91-.16-1.38-.09-.47,.07-.91,.24-1.31,.5-.52,.35-.92,.81-1.21,1.38s-.41,1.18-.38,1.83c.02,.5,.14,.97,.36,1.4,.06,.11,.11,.22,.16,.33,.05,.11,.11,.22,.18,.33-.1-.18-.2-.36-.29-.56,.18,.35,.42,.65,.71,.92s.61,.49,.97,.65c.37,.17,.75,.26,1.16,.28,.4,.02,.79-.04,1.17-.17,.37-.12,.71-.3,1.02-.54,.31-.24,.58-.52,.79-.84Z"/>
      <path class="cls-1" d="M40.19,31.12c.21,.22,.31,.49,.31,.8s-.1,.57-.31,.79c-.21,.21-.46,.32-.76,.32h-1.28c-.76,0-1.48-.15-2.15-.46-.67-.3-1.26-.72-1.77-1.24-.5-.52-.9-1.13-1.2-1.83-.3-.7-.44-1.45-.44-2.25s.15-1.53,.44-2.23c.3-.7,.7-1.31,1.2-1.83,.5-.52,1.09-.93,1.77-1.24,.67-.3,1.39-.46,2.15-.46h1.28c.3,0,.55,.11,.76,.32,.21,.21,.31,.48,.31,.79s-.1,.58-.31,.8c-.21,.22-.46,.33-.76,.33h-1.28c-.47,0-.91,.09-1.32,.28-.41,.19-.77,.44-1.08,.75-.31,.32-.56,.69-.73,1.12-.18,.43-.27,.88-.27,1.36s.09,.95,.27,1.38c.18,.43,.42,.8,.73,1.12,.31,.32,.67,.57,1.08,.75,.41,.19,.85,.28,1.32,.28h1.28c.3,0,.55,.11,.76,.33Z"/>
      <path class="cls-1" d="M51.26,31.9c0,.25-.08,.48-.23,.69-.16,.21-.35,.34-.6,.4-.25,.06-.5,.03-.73-.1-.24-.13-.41-.31-.51-.56-.05-.12-.07-.24-.07-.36s-.01-.24-.03-.38c-.03-.32-.1-.63-.21-.91-.22-.54-.52-.98-.91-1.34-.48-.45-1.05-.73-1.71-.84-.16-.04-.32-.05-.47-.05h-1.44s-.07,.01-.07,.04v3.19c0,.12,0,.24,0,.35,0,.11-.04,.22-.09,.33-.1,.24-.27,.42-.5,.55-.23,.12-.47,.16-.73,.1-.24-.06-.44-.19-.6-.39-.16-.2-.23-.44-.23-.7v-7.98c0-.23,0-.45,0-.67,0-.22,0-.44,0-.67,0-.26,.09-.5,.26-.7,.17-.2,.38-.33,.62-.38,.3-.05,.58,.03,.83,.22,.25,.2,.4,.45,.43,.76,.02,.12,.03,.24,.03,.36,0,.12,0,.24,0,.36v3s.03,0,.09,0h.98s.04,0,.1,0c.05,0,.08,0,.09,0l.16-.27c.08-.14,.16-.29,.24-.43,.08-.14,.16-.29,.24-.43,.26-.47,.53-.93,.79-1.4,.26-.47,.53-.94,.79-1.41,.06-.11,.12-.21,.19-.31,.07-.1,.15-.19,.24-.26,.23-.17,.49-.23,.78-.2,.29,.04,.52,.17,.71,.41,.14,.18,.21,.38,.22,.62,.01,.23-.04,.45-.16,.65-.05,.07-.09,.15-.12,.22s-.08,.15-.12,.22l-1.71,3.01c.51,.21,.97,.5,1.4,.86s.79,.77,1.1,1.24c.3,.47,.54,.97,.72,1.5,.17,.54,.26,1.09,.26,1.66Z"/>
    </g>
  </g>
</svg>